<svg version="1.0" xmlns="http://www.w3.org/2000/svg"
     width="200.000000pt" height="200.000000pt" viewBox="0 0 200.000000 200.000000"
     preserveAspectRatio="xMidYMid meet">
    <metadata>
        Created by potrace 1.16, written by Peter Selinger 2001-2019
    </metadata>
    <g transform="translate(0.000000,200.000000) scale(0.100000,-0.100000)"
       fill="#000000" stroke="none">
        <path d="M604 1676 c-45 -13 -115 -36 -154 -52 -87 -34 -109 -60 -194 -231
-116 -234 -156 -403 -156 -668 l0 -174 77 -52 c81 -55 243 -135 331 -164 40
-13 56 -14 67 -5 16 13 99 149 94 154 -2 2 -37 18 -77 36 -63 29 -71 35 -59
48 12 11 19 12 37 2 12 -7 54 -23 92 -36 233 -79 527 -70 755 24 45 18 53 19
64 6 10 -12 1 -19 -60 -47 -39 -17 -71 -36 -71 -40 0 -17 82 -148 96 -154 43
-16 422 172 467 231 13 17 0 373 -16 446 -33 152 -67 251 -132 382 -71 140
-114 204 -155 223 -84 41 -271 95 -329 95 -22 0 -31 -8 -49 -45 -20 -42 -24
-45 -49 -38 -37 9 -298 9 -343 0 -35 -7 -37 -6 -58 38 -20 42 -24 45 -59 44
-21 0 -75 -11 -119 -23z m176 -578 c61 -42 75 -71 75 -153 0 -59 -4 -79 -21
-102 -70 -95 -181 -98 -251 -6 -25 32 -28 45 -28 107 0 59 4 77 24 104 51 72
137 93 201 50z m597 5 c55 -26 88 -84 88 -157 0 -103 -64 -176 -155 -176 -91
0 -155 73 -155 176 0 49 5 68 26 100 46 69 124 92 196 57z"/>
    </g>
</svg>