<svg version="1.0" xmlns="http://www.w3.org/2000/svg"
     width="200.000000pt" height="200.000000pt" viewBox="0 0 200.000000 200.000000"
     preserveAspectRatio="xMidYMid meet">
    <metadata>
        Created by potrace 1.16, written by Peter Selinger 2001-2019
    </metadata>
    <g transform="translate(0.000000,200.000000) scale(0.100000,-0.100000)"
       fill="#000000" stroke="none">
        <path d="M114 1509 c-4 -7 -1 -15 7 -20 8 -4 207 -148 444 -320 237 -172 437
-313 446 -313 21 -1 899 636 895 649 -4 15 -1782 19 -1792 4z"/>
        <path d="M1595 1171 c-186 -137 -340 -253 -342 -258 -1 -4 153 -121 343 -260
l344 -252 0 509 c0 281 -1 510 -2 510 -2 -1 -156 -113 -343 -249z"/>
        <path d="M90 911 c0 -399 3 -501 13 -495 32 20 678 496 675 499 -7 7 -645 469
-665 483 l-23 14 0 -501z"/>
        <path d="M490 599 c-195 -143 -362 -265 -370 -270 -13 -8 -13 -10 0 -19 21
-14 1782 -9 1786 5 3 8 -699 532 -726 543 -5 2 -39 -20 -77 -47 -38 -28 -79
-51 -90 -51 -11 0 -51 23 -89 50 -38 28 -71 50 -74 50 -3 0 -165 -117 -360
-261z"/>
    </g>
</svg>