<svg version="1.0" xmlns="http://www.w3.org/2000/svg"
     width="200.000000pt" height="200.000000pt" viewBox="0 0 200.000000 200.000000"
     preserveAspectRatio="xMidYMid meet">
    <metadata>
        Created by potrace 1.16, written by Peter Selinger 2001-2019
    </metadata>
    <g transform="translate(0.000000,200.000000) scale(0.100000,-0.100000)"
       fill="#000000" stroke="none">
        <path d="M1391 1670 c-24 -11 -65 -36 -91 -55 -26 -19 -52 -35 -57 -35 -5 0
-17 -16 -26 -35 -9 -19 -21 -35 -27 -35 -5 0 -10 -6 -10 -14 0 -7 -12 -40 -27
-72 -36 -78 -38 -187 -4 -252 12 -24 21 -45 19 -46 -2 -1 -31 -13 -65 -26 -37
-15 -64 -31 -66 -42 -3 -11 -14 -18 -27 -18 -19 0 -20 2 -10 15 16 19 6 32
-13 17 -9 -8 -23 -4 -53 16 l-41 28 19 36 c20 37 19 39 -11 193 -10 52 -33
115 -42 115 -4 0 -16 16 -28 35 -11 19 -47 52 -80 73 -75 49 -233 96 -288 86
-45 -8 -124 -46 -142 -68 -8 -9 -17 -16 -22 -16 -16 0 -79 -74 -107 -125 -24
-46 -27 -59 -27 -165 0 -114 0 -116 35 -175 32 -54 42 -62 95 -84 56 -22 64
-23 130 -11 38 7 75 17 82 22 7 5 17 8 23 6 21 -7 -149 -111 -218 -133 -57
-19 -78 -21 -118 -14 -26 5 -50 12 -53 17 -14 18 -48 29 -64 21 -24 -14 -13
-56 44 -173 27 -55 49 -104 49 -110 0 -6 19 -27 41 -46 22 -19 50 -44 62 -55
22 -20 34 -26 117 -63 86 -38 110 -42 238 -38 149 5 208 24 323 107 39 28 77
53 85 56 8 3 30 -9 49 -26 20 -17 40 -31 45 -31 5 0 26 -11 46 -25 70 -48 152
-65 305 -65 125 0 145 2 202 25 35 14 84 44 110 67 54 46 138 176 163 250 8
26 20 48 25 48 5 0 9 16 9 35 0 43 -18 53 -54 30 -14 -10 -56 -19 -102 -22
-63 -5 -83 -3 -110 12 -19 10 -34 22 -34 26 0 5 18 18 40 29 70 36 112 87 148
180 37 99 46 213 19 265 -8 17 -29 60 -47 97 -39 82 -74 118 -148 154 -50 25
-71 29 -162 31 -89 3 -112 0 -149 -17z"/>
    </g>
</svg>