<svg version="1.0" xmlns="http://www.w3.org/2000/svg"
     width="200.000000pt" height="200.000000pt" viewBox="0 0 200.000000 200.000000"
     preserveAspectRatio="xMidYMid meet">
    <metadata>
        Created by potrace 1.16, written by Peter Selinger 2001-2019
    </metadata>
    <g transform="translate(0.000000,200.000000) scale(0.100000,-0.100000)"
       fill="#000000" stroke="none">
        <path d="M240 1875 c0 -8 -6 -29 -14 -47 -7 -18 -29 -76 -47 -128 l-34 -95 -3
-632 -2 -633 210 0 210 0 0 -105 0 -105 138 0 137 0 105 105 105 105 160 0
160 0 243 243 242 242 0 533 0 532 -805 0 c-701 0 -805 -2 -805 -15z m1440
-576 l0 -421 -130 -129 -131 -129 -211 0 -211 0 -103 -102 -104 -102 0 102 0
102 -185 0 -185 0 0 550 0 550 630 0 630 0 0 -421z"/>
        <path d="M830 1170 l0 -240 85 0 85 0 0 240 0 240 -85 0 -85 0 0 -240z"/>
        <path d="M1250 1171 l0 -240 85 -3 84 -3 3 243 3 242 -87 0 -88 0 0 -239z"/>
    </g>
</svg>