<svg version="1.0" xmlns="http://www.w3.org/2000/svg"
     width="200.000000pt" height="200.000000pt" viewBox="0 0 200.000000 200.000000"
     preserveAspectRatio="xMidYMid meet">
    <metadata>
        Created by potrace 1.16, written by Peter Selinger 2001-2019
    </metadata>
    <g transform="translate(0.000000,200.000000) scale(0.100000,-0.100000)"
       fill="#000000" stroke="none">
        <path d="M395 1615 c-119 -16 -141 -23 -189 -66 -50 -43 -62 -70 -80 -175 -22
-125 -22 -548 0 -675 24 -139 77 -204 184 -228 106 -23 375 -33 760 -28 507 6
580 17 651 94 66 70 79 154 79 504 0 277 -10 380 -43 444 -42 84 -98 114 -242
131 -151 18 -980 17 -1120 -1z m640 -470 c94 -53 174 -99 178 -102 7 -4 -361
-225 -400 -240 -10 -4 -13 47 -13 237 l0 242 33 -20 c17 -11 109 -63 202 -117z"/>
    </g>
</svg>